<svg xmlns="http://www.w3.org/2000/svg" xmlns:xlink="http://www.w3.org/1999/xlink" version="1.1" x="0px" y="0px" viewBox="0 0 100 100" enable-background="new 0 0 100 100" xml:space="preserve" fill="#78350f"><g><path d="M39.748,72.781l3.351-6.11C43.099,66.671,39.848,70.021,39.748,72.781z"/><path d="M87.486,45.723c0.806-11.258-7.504-15.011-7.504-15.011c1.606-15.277-16.084-19.835-16.084-19.835   c-6.144-2.546-21.655-2.546-27.799,0c0,0-17.689,4.558-16.082,19.835c0,0-8.309,3.753-7.505,15.011c0,0-12.329,19.298,4.279,23.097   c0,0,0.808,0.179,1.969,0.07c5.058,12.989,17.128,22.144,31.251,22.144c14.104,0,26.173-9.151,31.23-22.144   c1.16,0.108,1.966-0.07,1.966-0.07C99.816,65.021,87.486,45.723,87.486,45.723z M50.012,86.743   c-12.293,0-22.855-8.057-27.276-19.451c2.857-2.285,5.341-7.635,3.717-19.96c0,0,9.647,0.266,14.472-15.816   c0,0,0.238,0.242,0.674,0.589c0.015,0.127,0.024,0.217,0.024,0.217c0.63,0.391,1.248,0.727,1.854,1.021   c1.559,0.853,3.778,1.667,6.523,1.634c2.747,0.033,4.967-0.781,6.524-1.634c0.606-0.295,1.223-0.631,1.853-1.021   c0,0,0.012-0.09,0.026-0.217c0.436-0.347,0.673-0.589,0.673-0.589c4.823,16.082,14.473,15.816,14.473,15.816   c-1.629,12.352,0.869,17.699,3.734,19.97C72.839,78.689,62.3,86.743,50.012,86.743z"/><path d="M51.715,65.791c-1.422,1.134-2.544,0.248-2.753,0.055c-0.427-0.399-1.102-0.384-1.507,0.039   c-0.412,0.426-0.397,1.108,0.028,1.515c0.532,0.509,1.563,1.108,2.814,1.108c0.847,0,1.794-0.277,2.755-1.041   c0.462-0.369,0.537-1.048,0.168-1.509C52.854,65.5,52.178,65.427,51.715,65.791z"/><path d="M35.431,53.551c-2.311,0-4.184,1.873-4.184,4.185c0,2.31,1.873,4.182,4.184,4.182c2.307,0,4.185-1.872,4.185-4.182   C39.615,55.424,37.737,53.551,35.431,53.551z"/><path d="M65.183,53.551c-2.312,0-4.184,1.873-4.184,4.185c0,2.31,1.872,4.182,4.184,4.182c2.308,0,4.184-1.872,4.184-4.182   C69.366,55.424,67.49,53.551,65.183,53.551z"/><path d="M40.201,51.936c0.092-0.279-0.059-0.581-0.339-0.677c-0.077-0.024-1.911-0.632-4.432-0.632   c-2.583,0-4.364,0.607-4.44,0.634c-0.276,0.098-0.427,0.401-0.331,0.681c0.103,0.281,0.401,0.429,0.684,0.333   c0.017-0.004,1.696-0.573,4.088-0.573c2.337,0,4.075,0.569,4.091,0.573c0.055,0.021,0.113,0.027,0.169,0.027   C39.915,52.302,40.125,52.162,40.201,51.936z"/><path d="M66.539,46.679c0.06-0.015,0.11-0.035,0.16-0.064c0.188-0.117,0.293-0.348,0.242-0.578c-0.07-0.29-0.356-0.468-0.644-0.4   c-0.081,0.017-1.957,0.458-4.109,1.778c-2.199,1.346-3.401,2.796-3.451,2.856c-0.188,0.229-0.155,0.565,0.07,0.755   c0.235,0.187,0.57,0.155,0.759-0.076c0.009-0.01,1.146-1.373,3.185-2.623C64.742,47.104,66.522,46.685,66.539,46.679z"/><rect x="41.262" y="74.305" transform="matrix(-0.9072 -0.4207 0.4207 -0.9072 58.2275 163.5982)" width="11.788" height="2.144"/></g></svg>