<svg xmlns="http://www.w3.org/2000/svg" xmlns:xlink="http://www.w3.org/1999/xlink" version="1.1" x="0px" y="0px" viewBox="0 0 100 100" enable-background="new 0 0 100 100" xml:space="preserve" fill="#431407"><g><path d="M72.328,46.994c0-0.008,0.035-0.758,0.899-1.132c0.507-0.22,0.739-0.809,0.521-1.315c-0.22-0.506-0.808-0.742-1.315-0.52   c-1.637,0.709-2.093,2.179-2.104,2.936c-0.009,0.552,0.433,1.007,0.984,1.016c0.006,0,0.011,0,0.016,0   C71.873,47.978,72.319,47.541,72.328,46.994z"/><path d="M85.337,33.328c0.295-4.574-3.583-7.065-8.052-8.646C67.819,21.333,72.56,13.779,64.11,9.577   c-5.647-2.81-11.857-2.13-16.324,1.305c-4.557-2.378-10.229-2.289-15.193,0.698c-8.084,4.864-2.756,12.015-11.923,16.11   c-4.328,1.934-7.993,4.727-7.334,9.263c0.498,3.456,3.14,6.078,6.446,6.833c-0.395,1.053-0.62,2.188-0.62,3.377   c0,3.919,2.344,7.282,5.701,8.79c3.133,6.705,8.945,10.621,14.765,13.553v4.061c-14.704,2.295-24.899,9.812-24.899,18.457   c0,0.552,0.447,1,1,1s1-0.448,1-1c0-7.579,9.358-14.25,22.9-16.437c0.002,0.146,0.02,0.289,0.028,0.434   c0.009,0.146,0.014,0.294,0.029,0.438c0.018,0.168,0.048,0.333,0.074,0.498c0.023,0.144,0.042,0.289,0.071,0.43   c0.033,0.162,0.079,0.318,0.12,0.477c0.037,0.14,0.069,0.282,0.112,0.419c0.049,0.154,0.107,0.303,0.163,0.453   c0.05,0.135,0.096,0.273,0.151,0.405c0.062,0.146,0.135,0.286,0.203,0.428c0.062,0.13,0.121,0.263,0.189,0.39   c0.074,0.137,0.158,0.268,0.239,0.401c0.075,0.123,0.146,0.25,0.226,0.369c0.087,0.129,0.183,0.251,0.276,0.376   c0.085,0.115,0.166,0.232,0.256,0.343c0.099,0.121,0.206,0.232,0.311,0.348c0.095,0.105,0.187,0.215,0.286,0.316   c0.109,0.111,0.228,0.212,0.343,0.317c0.104,0.096,0.204,0.195,0.312,0.286c0.12,0.1,0.248,0.19,0.372,0.284   c0.113,0.084,0.222,0.174,0.338,0.254c0.13,0.089,0.268,0.167,0.402,0.249c0.119,0.073,0.234,0.151,0.357,0.219   c0.143,0.079,0.292,0.145,0.439,0.216c0.121,0.059,0.239,0.124,0.364,0.177c0.156,0.067,0.319,0.121,0.48,0.18   c0.121,0.044,0.24,0.096,0.364,0.135c0.169,0.054,0.344,0.092,0.517,0.136c0.122,0.031,0.241,0.069,0.365,0.095   c0.195,0.041,0.396,0.065,0.597,0.093c0.105,0.015,0.208,0.038,0.314,0.049c0.31,0.032,0.622,0.048,0.939,0.048   s0.63-0.017,0.939-0.048c0.107-0.011,0.212-0.034,0.318-0.049c0.199-0.028,0.399-0.052,0.594-0.093   c0.121-0.025,0.236-0.062,0.355-0.092c0.176-0.044,0.354-0.084,0.526-0.138c0.124-0.039,0.241-0.09,0.363-0.134   c0.161-0.059,0.325-0.113,0.481-0.18c0.125-0.054,0.244-0.119,0.366-0.178c0.146-0.071,0.296-0.137,0.438-0.215   c0.123-0.068,0.238-0.146,0.358-0.219c0.134-0.083,0.271-0.16,0.401-0.249c0.114-0.079,0.222-0.167,0.333-0.251   c0.126-0.095,0.256-0.186,0.377-0.288c0.106-0.089,0.205-0.187,0.308-0.28c0.116-0.107,0.236-0.21,0.348-0.323   c0.099-0.1,0.188-0.208,0.283-0.312c0.105-0.117,0.214-0.23,0.313-0.352c0.089-0.109,0.168-0.225,0.252-0.337   c0.095-0.127,0.192-0.25,0.281-0.382c0.078-0.117,0.146-0.24,0.22-0.361c0.083-0.136,0.169-0.269,0.245-0.41   c0.067-0.125,0.124-0.256,0.187-0.384c0.069-0.144,0.143-0.285,0.205-0.433c0.056-0.132,0.101-0.269,0.15-0.404   c0.056-0.151,0.115-0.3,0.164-0.455c0.043-0.138,0.075-0.281,0.112-0.421c0.041-0.158,0.086-0.313,0.12-0.474   c0.029-0.143,0.048-0.289,0.071-0.434c0.026-0.165,0.056-0.328,0.074-0.495c0.016-0.146,0.02-0.295,0.028-0.444   c0.009-0.145,0.026-0.287,0.028-0.433c13.569,2.18,22.947,8.853,22.947,16.443c0,0.552,0.447,1,1,1s1-0.448,1-1   c0-8.657-10.215-16.176-24.946-18.463v-4.188c5.255-2.838,10.749-6.554,13.956-12.602c0.251,0.021,0.503,0.038,0.76,0.038   c5.327,0,9.645-4.318,9.645-9.646c0-2.569-1.011-4.898-2.648-6.626C82.878,39.427,85.125,36.68,85.337,33.328z M56.646,67.891   c-0.327,0.174-0.531,0.514-0.531,0.883v5.645v1.009c0,4.092-3.25,7.421-7.244,7.421s-7.243-3.329-7.243-7.421v-1.003v-5.538   c0-0.38-0.216-0.728-0.558-0.896C32.877,63.944,24.5,57.979,24.5,44.418c0-13.693,10.859-24.834,24.208-24.834   c0.549,0,1.091,0.034,1.632,0.071c3.822,0.594,9.304,2.92,10.421,11.263c0.47,3.508,1.048,5.417,1.678,6.39   c1.173,2.529,3.727,4.288,6.697,4.288c1.985,0,3.775-0.795,5.101-2.071c2.048,0.072,3.694,1.75,3.694,3.814   c0,1.316-0.673,2.524-1.8,3.233c-0.393,0.247-0.563,0.73-0.415,1.168c0.114,0.335,0.17,0.639,0.17,0.927   c0,1.588-1.292,2.881-2.88,2.881c-0.046,0-0.102-0.005-0.171-0.01c-0.464-0.037-0.892,0.256-1.029,0.702   C69.327,60.25,62.751,64.647,56.646,67.891z"/><path d="M59.196,45.245c-0.479,0.09-0.84,0.307-0.854,0.316c-0.092,0.055-0.129,0.14-0.092,0.218   c0.035,0.078,0.137,0.136,0.258,0.149l2.08,0.229c0.051,0.004,0.1,0.002,0.146-0.006c0.064-0.012,0.125-0.039,0.168-0.076   c0.072-0.063,0.086-0.149,0.035-0.221C60.417,45.134,59.622,45.164,59.196,45.245z"/><path d="M35.474,45.207c-0.428-0.082-1.223-0.111-1.744,0.609c-0.051,0.072-0.037,0.157,0.035,0.221   c0.043,0.037,0.104,0.064,0.168,0.076c0.047,0.008,0.097,0.011,0.146,0.006l2.08-0.229c0.122-0.013,0.223-0.071,0.258-0.149   c0.037-0.079,0.002-0.163-0.09-0.218C36.312,45.514,35.951,45.297,35.474,45.207z"/><path d="M55.071,40.301c-1.646,0-2.887,0.717-2.887,1.668c0,0.277,0.223,0.5,0.5,0.5h0.289c-0.006,0.062-0.02,0.123-0.02,0.188   v1.37c0,0.081,0.015,0.157,0.023,0.235c-0.925,0.117-1.733,0.585-2.297,1.273h-4.194c-0.66,0-1.271,0.198-1.79,0.529   c-0.558-1.004-1.577-1.703-2.776-1.814c0.008-0.074,0.022-0.146,0.022-0.223v-1.37c0-0.064-0.014-0.125-0.018-0.188h0.289   c0.275,0,0.5-0.223,0.5-0.5c0-0.951-1.242-1.668-2.887-1.668c-1.646,0-2.889,0.717-2.889,1.668c0,0.277,0.225,0.5,0.5,0.5h0.289   c-0.004,0.062-0.018,0.123-0.018,0.188v1.37c0,0.733,0.372,1.378,0.938,1.758c-0.385,0.568-0.61,1.254-0.61,1.991   c0,1.962,1.597,3.558,3.559,3.558c0.771,0,1.481-0.253,2.065-0.672c0.594,0.939,1.635,1.569,2.825,1.569h2.873c0.553,0,1-0.448,1-1   s-0.447-1-1-1h-2.873c-0.743,0-1.348-0.604-1.348-1.348s0.604-1.348,1.348-1.348h3.401c-0.006,0.081-0.024,0.158-0.024,0.241   c0,1.962,1.597,3.558,3.559,3.558s3.559-1.596,3.559-3.558c0-0.764-0.247-1.468-0.658-2.048c0.522-0.385,0.866-1,0.866-1.701v-1.37   c0-0.064-0.014-0.125-0.018-0.188h0.289c0.275,0,0.5-0.223,0.5-0.5C57.96,41.018,56.718,40.301,55.071,40.301z M41.596,49.333   c-0.859,0-1.559-0.699-1.559-1.558c0-0.859,0.699-1.559,1.559-1.559s1.559,0.699,1.559,1.559   C43.154,48.634,42.455,49.333,41.596,49.333z M53.422,49.333c-0.859,0-1.559-0.699-1.559-1.558c0-0.859,0.699-1.559,1.559-1.559   s1.559,0.699,1.559,1.559C54.98,48.634,54.281,49.333,53.422,49.333z"/><path d="M55.219,52.47c-0.471-0.163-0.955-0.1-0.977-0.097c-0.123,0.016-0.227,0.101-0.266,0.22   c-0.039,0.117-0.008,0.248,0.08,0.335l1.498,1.484c0.037,0.034,0.08,0.06,0.125,0.076c0.064,0.022,0.137,0.023,0.205,0.002   c0.115-0.037,0.201-0.136,0.223-0.255C56.314,53.036,55.639,52.614,55.219,52.47z"/><path d="M52.162,54.813c-0.247,0.367-1.874,1.432-4.652,1.432c-2.776,0-4.404-1.066-4.653-1.433   c-0.31-0.457-0.931-0.578-1.389-0.268c-0.457,0.31-0.577,0.931-0.268,1.389c0.777,1.149,3.194,2.312,6.31,2.312   c3.117,0,5.534-1.164,6.311-2.313c0.309-0.458,0.188-1.079-0.27-1.388C53.091,54.234,52.471,54.356,52.162,54.813z"/><path d="M51.62,36.37c0.288,0.462,0.901,0.603,1.37,0.323c0.074-0.045,0.748-0.42,1.57,0.03c0.152,0.083,0.316,0.122,0.479,0.122   c0.354,0,0.697-0.188,0.879-0.521c0.265-0.484,0.086-1.092-0.398-1.357c-1.523-0.83-2.982-0.366-3.604,0.04   C51.458,35.304,51.331,35.908,51.62,36.37z"/><path d="M40.389,36.693c0.074-0.045,0.747-0.42,1.57,0.03c0.152,0.083,0.316,0.122,0.479,0.122c0.354,0,0.697-0.188,0.879-0.521   c0.265-0.484,0.086-1.092-0.398-1.357c-1.523-0.83-2.982-0.366-3.604,0.04c-0.457,0.297-0.584,0.9-0.295,1.363   C39.307,36.833,39.92,36.973,40.389,36.693z"/><path d="M50.284,67.927c-0.197,0.059-0.666,0.158-1.576,0.158c-0.938,0-1.168-0.059-1.631-0.174   c-0.373-0.094-0.793-0.012-1.051,0.207c-0.26,0.219-0.309,0.529-0.123,0.783c0.322,0.441,1.266,1.189,2.76,1.189   c0.006,0,0.057,0,0.062,0c1.498-0.021,2.451-0.75,2.777-1.178c0.199-0.26,0.148-0.584-0.125-0.807   C51.104,67.886,50.667,67.812,50.284,67.927z"/><path d="M43.08,27.556h8.859c0.414,0,0.75-0.336,0.75-0.75s-0.336-0.75-0.75-0.75H43.08c-0.414,0-0.75,0.336-0.75,0.75   S42.666,27.556,43.08,27.556z"/><path d="M43.08,31.014h8.859c0.414,0,0.75-0.336,0.75-0.75s-0.336-0.75-0.75-0.75H43.08c-0.414,0-0.75,0.336-0.75,0.75   S42.666,31.014,43.08,31.014z"/></g></svg>